# xmcd
#
# Track frame offsets:
#	150
#	16678
#	33372
#	48346
#	63757
#	84020
#	106269
#	116854
#	133580
#	159769
#	177761
#
# Disc length: 2607 seconds
#
# Revision: 1
# Processed by: cddbd v1.5.1PL0 Copyright (c) Steve Scherf et al.
# Submitted via: EasyCDDAExtractor 6.0.0.1
#
DISCID=750a2d0b
DTITLE=Country Crew - Free by choice
DYEAR=1999
DGENRE=Country
TTITLE0=Free by choice
TTITLE1=Silent songs
TTITLE2=My song
TTITLE3=The chatterbox
TTITLE4=Back
TTITLE5=Like the river deep below
TTITLE6=The CMV-song
TTITLE7=How it is
TTITLE8=Late night DJ
TTITLE9=Country Crew on the road
TTITLE10=I wanna stay with daddy
EXTD=
EXTT0=
EXTT1=
EXTT2=
EXTT3=
EXTT4=
EXTT5=
EXTT6=
EXTT7=
EXTT8=
EXTT9=
EXTT10=
PLAYORDER=
